<svg xmlns="http://www.w3.org/2000/svg" viewBox="0 0 976 1022" width="976" height="1022">
  <path d="M 590.00 805.50 L 586.50 803.00 L 574.50 779.00 L 563.50 762.00 L 489.50 629.00 L 474.50 605.00 L 472.50 597.00 L 484.50 578.00 L 496.50 553.00 L 503.50 531.00 L 506.50 514.00 L 508.00 512.50 L 512.50 516.00 L 531.50 553.00 L 571.50 622.00 L 574.50 625.00 L 586.50 649.00 L 591.00 651.50 L 651.50 548.00 L 678.50 498.00 L 698.50 466.00 L 710.50 442.00 L 746.50 382.00 L 752.50 369.00 L 783.50 318.00 L 786.50 312.00 L 786.50 308.00 L 781.00 303.50 L 712.00 264.50 L 709.00 261.50 L 700.00 257.50 L 510.00 145.50 L 477.00 127.50 L 474.00 127.50 L 464.00 132.50 L 456.00 138.50 L 426.00 154.50 L 413.00 163.50 L 215.00 278.50 L 75.00 278.50 L 73.50 277.00 L 77.00 272.50 L 85.00 267.50 L 108.00 256.50 L 151.00 229.50 L 165.00 222.50 L 292.00 146.50 L 313.00 135.50 L 353.00 110.50 L 444.00 58.50 L 462.00 47.50 L 466.00 43.50 L 475.00 39.50 L 486.00 43.50 L 492.00 48.50 L 549.00 80.50 L 638.00 134.50 L 661.00 146.50 L 679.00 158.50 L 886.00 278.50 L 889.50 282.00 L 886.50 290.00 L 865.50 324.00 L 787.50 464.00 L 773.50 485.00 L 752.50 525.00 L 746.50 533.00 L 745.50 537.00 L 706.50 605.00 L 686.50 637.00 L 684.50 643.00 L 666.50 672.00 L 656.50 692.00 L 625.50 744.00 L 596.50 797.00 Z M 591.00 537.50 L 589.50 536.00 L 590.50 318.00 L 589.00 316.50 L 542.00 316.50 L 537.50 320.00 L 532.50 330.00 L 524.00 337.50 L 514.00 341.50 L 506.00 341.50 L 495.00 337.50 L 487.00 331.50 L 478.00 317.50 L 434.00 316.50 L 415.00 303.50 L 399.00 295.50 L 381.00 288.50 L 362.00 284.50 L 358.50 282.00 L 360.00 280.50 L 471.00 282.50 L 611.00 281.50 L 620.00 283.50 L 623.50 287.00 L 625.50 292.00 L 625.50 410.00 L 628.00 413.50 L 659.00 412.50 L 661.50 415.00 L 661.50 418.00 L 654.50 427.00 L 646.50 444.00 L 617.50 491.00 L 595.50 533.00 Z M 479.00 996.50 L 474.00 996.50 L 470.00 994.50 L 441.00 975.50 L 373.00 937.50 L 319.00 904.50 L 287.00 887.50 L 264.00 872.50 L 212.00 843.50 L 89.00 770.50 L 67.00 759.50 L 63.50 756.00 L 61.50 627.00 L 61.50 320.00 L 64.00 314.50 L 317.00 314.50 L 340.00 316.50 L 372.00 323.50 L 401.00 337.50 L 432.00 362.50 L 449.50 384.00 L 461.50 406.00 L 469.50 428.00 L 473.50 445.00 L 475.50 486.00 L 472.50 510.00 L 461.50 541.00 L 445.50 571.00 L 422.00 596.50 L 411.00 605.50 L 401.00 610.50 L 397.50 614.00 L 397.50 617.00 L 429.50 675.00 L 435.50 683.00 L 466.50 741.00 L 483.50 768.00 L 515.50 827.00 L 543.50 874.00 L 557.50 901.00 L 578.50 934.00 L 578.50 937.00 L 576.00 939.50 L 529.00 965.50 Z M 612.00 917.50 L 607.50 914.00 L 602.50 902.00 L 576.50 859.00 L 574.50 853.00 L 578.00 849.50 L 586.00 846.50 L 602.00 835.50 L 707.00 776.50 L 745.00 752.50 L 785.00 730.50 L 801.00 719.50 L 808.00 716.50 L 811.50 712.00 L 812.50 490.00 L 856.50 415.00 L 864.50 398.00 L 878.50 376.00 L 884.50 363.00 L 889.00 357.50 L 891.50 360.00 L 890.50 754.00 L 883.00 760.50 L 866.00 768.50 L 804.00 806.50 L 781.00 818.50 L 763.00 830.50 L 752.00 835.50 L 687.00 873.50 L 684.00 876.50 Z M 472.50 908.00 L 473.50 902.00 L 471.50 898.00 L 421.50 812.00 L 360.50 701.00 L 332.50 654.00 L 325.50 639.00 L 321.00 635.50 L 251.00 635.50 L 248.50 633.00 L 248.50 565.00 L 251.00 562.50 L 308.00 562.50 L 339.00 559.50 L 352.00 554.50 L 366.00 546.50 L 382.50 530.00 L 393.50 511.00 L 399.50 486.00 L 399.50 468.00 L 397.50 451.00 L 392.50 436.00 L 387.50 427.00 L 379.50 416.00 L 364.00 402.50 L 346.00 393.50 L 329.00 388.50 L 149.00 387.50 L 140.00 388.50 L 138.50 390.00 L 139.50 711.00 L 145.00 716.50 L 152.00 719.50 L 168.00 730.50 L 252.00 777.50 L 287.00 799.50 Z " fill="#ffffff" fill-rule="evenodd" clip-rule="evenodd"/>
</svg>
